<svg width="24" height="24" viewBox="0 0 24 24" fill="none" xmlns="http://www.w3.org/2000/svg">
<path d="M10.5856 10.5869C10.2105 10.9621 9.99991 11.4708 10 12.0013C10.0001 12.5317 10.2109 13.0404 10.5861 13.4154C10.9612 13.7904 11.47 14.0011 12.0004 14.001C12.5309 14.0009 13.0395 13.7901 13.4146 13.4149" stroke="#5C0C70" stroke-width="2" stroke-linecap="round" stroke-linejoin="round"/>
<path d="M16.681 16.673C15.2782 17.5507 13.6547 18.0109 12 18C8.4 18 5.4 16 3 12C4.272 9.88 5.712 8.322 7.32 7.326M10.18 6.18C10.779 6.05873 11.3888 5.99842 12 6C15.6 6 18.6 8 21 12C20.334 13.11 19.621 14.067 18.862 14.87M3 3L21 21" stroke="#5C0C70" stroke-width="2" stroke-linecap="round" stroke-linejoin="round"/>
</svg>
