<svg width="40" height="40" fill="none" xmlns="http://www.w3.org/2000/svg"><path d="M6.25 17.5A1.25 1.25 0 0 1 5 16.25V6.252a1.25 1.25 0 0 1 1.25-1.25h10a1.25 1.25 0 0 1 1.25 1.25v9.998a1.25 1.25 0 0 1-1.25 1.25h-10Zm17.5 0a1.25 1.25 0 0 1-1.25-1.25V6.252a1.25 1.25 0 0 1 1.25-1.25h9.998a1.25 1.25 0 0 1 1.25 1.25v9.998a1.25 1.25 0 0 1-1.25 1.25H23.75ZM6.25 35A1.25 1.25 0 0 1 5 33.75v-10a1.25 1.25 0 0 1 1.25-1.25h10a1.25 1.25 0 0 1 1.25 1.25v10A1.25 1.25 0 0 1 16.25 35h-10Zm17.5 0a1.25 1.25 0 0 1-1.25-1.25v-10a1.25 1.25 0 0 1 1.25-1.25h9.998a1.25 1.25 0 0 1 1.25 1.25v10a1.25 1.25 0 0 1-1.25 1.25H23.75Z" fill="#5C0C70"/></svg>