<svg width="15" height="15" fill="none" xmlns="http://www.w3.org/2000/svg"><g clip-path="url(#a)"><path d="M12.885 4.981H9.797V2.863c0-1.016-.303-1.754-.903-2.191C7.951-.02 6.67.369 6.614.387a.526.526 0 0 0-.367.502v2.556c0 1.891-2.225 2.55-2.32 2.574-.006.003-.012.003-.016.006l-.254.08a1.588 1.588 0 0 0-1.095-.438h-.964A1.594 1.594 0 0 0 0 7.26v5.497c0 .881.716 1.598 1.598 1.598h.964c.407 0 .78-.153 1.062-.407.404.48 1.01.79 1.686.79h6.256c1.45 0 2.415-.797 2.583-2.128l.778-4.882.042-.263a2.12 2.12 0 0 0-2.084-2.485Zm-9.775 7.78a.547.547 0 0 1-.548.548h-.964a.547.547 0 0 1-.548-.548v-5.5c0-.303.245-.548.548-.548h.964c.303 0 .548.245.548.548v5.5Zm10.822-5.457-.82 5.154c0 .006-.004.012-.004.018-.036.3-.146 1.215-1.542 1.215H5.31c-.633 0-1.15-.517-1.15-1.15V7.26c0-.07-.007-.14-.016-.211l.077-.025c.223-.064 3.075-.94 3.075-3.583V1.32c.303-.031.701-.01.98.198.312.233.471.683.471 1.344v2.644c0 .291.236.527.527.527h3.611c.588 0 1.062.477 1.062 1.062 0 .067-.006.138-.015.208Z" fill="#5C0C70"/></g><defs><clipPath id="a"><path fill="#fff" d="M0 0h15v15H0z"/></clipPath></defs></svg>