<svg width="520" height="78" viewBox="0 0 520 78" fill="none" xmlns="http://www.w3.org/2000/svg">
<g clip-path="url(#clip0_829_111085)">
<path d="M38.5714 77.7012C59.8738 77.7012 77.1429 60.4351 77.1429 39.1363C77.1429 17.8375 59.8738 0.57135 38.5714 0.57135C17.269 0.57135 0 17.8375 0 39.1363C0 60.4351 17.269 77.7012 38.5714 77.7012Z" fill="#FD8E5E"/>
<path d="M88.5713 0.57135H165.714L126.132 40.1463L88.5713 77.7012V0.57135Z" fill="#84CA5D"/>
<path d="M196.54 71.613C178.531 61.2165 172.252 38.3063 182.35 20.2097L248.16 58.1993C237.534 75.99 214.55 82.009 196.54 71.613ZM248.731 57.2097L182.921 19.2201C193.547 1.4289 216.531 -4.59008 234.54 5.80619C252.55 16.2024 258.828 39.1129 248.731 57.2097Z" fill="#FFD983" stroke="#FAEEEB" stroke-width="2"/>
<path d="M290.879 47.1445L278.297 69.6928L291.702 77.7012L304.285 55.1526L316.868 77.7012L330.274 69.6928L317.692 47.1445H342.857V31.1281H317.692L330.274 8.57954L316.868 0.57135L304.285 23.1199L291.702 0.57135L278.297 8.57954L290.879 31.1281H265.714V47.1445H290.879Z" fill="#FFD983"/>
<path d="M392.572 39.4219L431.429 0.57135V77.7012H354.286L392.572 39.4219Z" fill="#C18ED1"/>
<path d="M443.832 45.3071C440.22 24.8305 453.739 5.29533 474.094 1.39657L487.289 76.2208C466.828 79.518 447.443 65.7837 443.832 45.3071ZM488.415 76.0225L475.219 1.19815C495.681 -2.09902 515.066 11.6354 518.677 32.1121C522.288 52.5887 508.771 72.1238 488.415 76.0225Z" fill="#84CA5D" stroke="#FAEEEB" stroke-width="2"/>
</g>
<defs>
<clipPath id="clip0_829_111085">
<rect width="520" height="77.7011" fill="white"/>
</clipPath>
</defs>
</svg>
