<svg width="122" height="122" viewBox="0 0 122 122" fill="none" xmlns="http://www.w3.org/2000/svg">
<rect width="122" height="122" rx="61" fill="#8AC263"/>
<rect x="11" y="11" width="100" height="100" rx="50" fill="white"/>
<path d="M53.1348 78.5367C52.5391 78.5356 51.9539 78.3794 51.4369 78.0836C50.2726 77.4239 49.5488 76.1432 49.5488 74.7529V46.6165C49.5488 45.2223 50.2726 43.9455 51.4369 43.2858C51.9662 42.9816 52.5676 42.8251 53.1781 42.8328C53.7886 42.8405 54.3858 43.012 54.9073 43.3294L78.9542 57.7236C79.4553 58.0378 79.8685 58.4742 80.1549 58.9918C80.4412 59.5094 80.5915 60.0912 80.5915 60.6828C80.5915 61.2743 80.4412 61.8561 80.1549 62.3737C79.8685 62.8913 79.4553 63.3277 78.9542 63.6419L54.9035 78.04C54.3697 78.3626 53.7584 78.5343 53.1348 78.5367Z" fill="#FF4E00"/>
</svg>
