<svg width="283" height="45" viewBox="0 0 283 45" fill="none" xmlns="http://www.w3.org/2000/svg">
<path d="M1 19.2002C0.447715 19.2002 0 19.6479 0 20.2002C0 20.7525 0.447715 21.2002 1 21.2002V19.2002ZM283 20.2002L273 14.4267V25.9737L283 20.2002ZM1 21.2002H274V19.2002H1V21.2002Z" fill="#5C0C70"/>
<circle cx="70.5" cy="20.7002" r="4" fill="#5C0C70"/>
<circle cx="117.5" cy="20.7002" r="4" fill="#5C0C70"/>
<circle cx="166.5" cy="20.7002" r="4" fill="#5C0C70"/>
<circle cx="213.5" cy="20.7002" r="4" fill="#5C0C70"/>
<path d="M46.5 14.7002L46.5 26.7002" stroke="#5C0C70" stroke-width="2" stroke-linecap="round"/>
<path d="M142.5 14.7002V26.7002" stroke="#5C0C70" stroke-width="2" stroke-linecap="round"/>
<path d="M237.5 14.7002V26.7002" stroke="#5C0C70" stroke-width="2" stroke-linecap="round"/>
<path d="M41.5 32.3002V30.7002H51.3L44.6 44.7002H42.82L48.76 32.3002H41.5Z" fill="#5C0C70"/>
<path d="M67.4396 10.5L68.0396 8.9H74.2396L74.8396 10.5H67.4396ZM71.0996 3.86L68.7396 9.42L68.5796 9.78L66.4996 14.7H64.5996L71.0996 0L77.5996 14.7H75.6996L73.6596 9.9L73.4996 9.5L71.0996 3.86Z" fill="#5C0C70"/>
<path d="M115.44 7.3002V6.3602H117.7C118.166 6.3602 118.586 6.2802 118.96 6.1202C119.333 5.9602 119.626 5.72686 119.84 5.4202C120.053 5.11353 120.16 4.7402 120.16 4.3002C120.16 3.63353 119.926 3.1202 119.46 2.7602C118.993 2.38686 118.406 2.2002 117.7 2.2002H115.8V13.2002H117.9C118.5 13.2002 119.026 13.0935 119.48 12.8802C119.946 12.6669 120.306 12.3602 120.56 11.9602C120.826 11.5602 120.96 11.0735 120.96 10.5002C120.96 10.0735 120.886 9.69353 120.74 9.3602C120.593 9.02686 120.38 8.74686 120.1 8.5202C119.833 8.29353 119.513 8.12686 119.14 8.0202C118.766 7.9002 118.353 7.8402 117.9 7.8402H115.44V6.9002H117.9C118.58 6.9002 119.206 6.97353 119.78 7.1202C120.353 7.26686 120.853 7.49353 121.28 7.8002C121.72 8.09353 122.06 8.47353 122.3 8.9402C122.54 9.40686 122.66 9.9602 122.66 10.6002C122.66 11.5202 122.446 12.2869 122.02 12.9002C121.606 13.5002 121.04 13.9535 120.32 14.2602C119.613 14.5535 118.806 14.7002 117.9 14.7002H114.1V0.700195H117.7C118.54 0.700195 119.266 0.826862 119.88 1.0802C120.506 1.33353 120.993 1.7202 121.34 2.2402C121.686 2.74686 121.86 3.4002 121.86 4.2002C121.86 4.85353 121.686 5.41353 121.34 5.8802C120.993 6.34686 120.506 6.7002 119.88 6.9402C119.266 7.1802 118.54 7.3002 117.7 7.3002H115.44Z" fill="#5C0C70"/>
<path d="M162.101 7.7C162.101 8.78 162.341 9.73333 162.821 10.56C163.314 11.3867 163.954 12.0333 164.741 12.5C165.527 12.9667 166.381 13.2 167.301 13.2C167.967 13.2 168.574 13.1133 169.121 12.94C169.681 12.7667 170.187 12.5267 170.641 12.22C171.094 11.9 171.481 11.5333 171.801 11.12V13.36C171.214 13.88 170.574 14.2667 169.881 14.52C169.187 14.7733 168.327 14.9 167.301 14.9C166.327 14.9 165.414 14.7267 164.561 14.38C163.721 14.02 162.981 13.52 162.341 12.88C161.701 12.2267 161.201 11.46 160.841 10.58C160.481 9.7 160.301 8.74 160.301 7.7C160.301 6.66 160.481 5.7 160.841 4.82C161.201 3.94 161.701 3.18 162.341 2.54C162.981 1.88667 163.721 1.38667 164.561 1.04C165.414 0.68 166.327 0.5 167.301 0.5C168.327 0.5 169.187 0.626667 169.881 0.88C170.574 1.13333 171.214 1.52 171.801 2.04V4.28C171.481 3.86667 171.094 3.50667 170.641 3.2C170.187 2.88 169.681 2.63333 169.121 2.46C168.574 2.28667 167.967 2.2 167.301 2.2C166.381 2.2 165.527 2.43333 164.741 2.9C163.954 3.36667 163.314 4.01333 162.821 4.84C162.341 5.65333 162.101 6.60667 162.101 7.7Z" fill="#5C0C70"/>
<path d="M210.1 0.700195H211.8V14.7002H210.1V0.700195ZM214.3 14.7002H211.04V13.0002H214.3C215.086 13.0002 215.806 12.8802 216.46 12.6402C217.113 12.3869 217.673 12.0335 218.14 11.5802C218.606 11.1135 218.966 10.5535 219.22 9.9002C219.473 9.24686 219.6 8.51353 219.6 7.7002C219.6 6.88686 219.473 6.15353 219.22 5.5002C218.966 4.84686 218.606 4.29353 218.14 3.8402C217.673 3.37353 217.113 3.0202 216.46 2.7802C215.806 2.52686 215.086 2.4002 214.3 2.4002H211.04V0.700195H214.3C215.66 0.700195 216.866 0.993529 217.92 1.5802C218.973 2.16686 219.8 2.98686 220.4 4.0402C221 5.0802 221.3 6.3002 221.3 7.7002C221.3 9.1002 221 10.3269 220.4 11.3802C219.8 12.4202 218.973 13.2335 217.92 13.8202C216.866 14.4069 215.66 14.7002 214.3 14.7002Z" fill="#5C0C70"/>
<path d="M139.1 34.08C139.1 33.4133 139.266 32.8133 139.6 32.28C139.946 31.7333 140.406 31.3 140.98 30.98C141.566 30.66 142.226 30.5 142.96 30.5C143.693 30.5 144.346 30.66 144.92 30.98C145.506 31.3 145.966 31.7333 146.3 32.28C146.646 32.8133 146.82 33.4133 146.82 34.08C146.82 34.6267 146.726 35.12 146.54 35.56C146.353 35.9867 146.086 36.3533 145.74 36.66C145.406 36.9667 145 37.2 144.52 37.36C144.053 37.52 143.533 37.6 142.96 37.6C142.386 37.6 141.86 37.52 141.38 37.36C140.913 37.2 140.506 36.9667 140.16 36.66C139.826 36.3533 139.566 35.9867 139.38 35.56C139.193 35.12 139.1 34.6267 139.1 34.08ZM140.72 34.28C140.72 34.72 140.82 35.1067 141.02 35.44C141.233 35.7733 141.506 36.0333 141.84 36.22C142.186 36.4067 142.56 36.5 142.96 36.5C143.36 36.5 143.726 36.4067 144.06 36.22C144.406 36.0333 144.68 35.7733 144.88 35.44C145.093 35.1067 145.2 34.72 145.2 34.28C145.2 33.84 145.1 33.4467 144.9 33.1C144.713 32.7533 144.453 32.4867 144.12 32.3C143.786 32.1 143.4 32 142.96 32C142.533 32 142.146 32.1 141.8 32.3C141.466 32.4867 141.2 32.7533 141 33.1C140.813 33.4467 140.72 33.84 140.72 34.28ZM138.6 40.9C138.6 40.26 138.713 39.6933 138.94 39.2C139.18 38.6933 139.5 38.2733 139.9 37.94C140.313 37.5933 140.78 37.3333 141.3 37.16C141.833 36.9867 142.386 36.9 142.96 36.9C143.533 36.9 144.08 36.9867 144.6 37.16C145.133 37.3333 145.6 37.5933 146 37.94C146.413 38.2733 146.733 38.6933 146.96 39.2C147.2 39.6933 147.32 40.26 147.32 40.9C147.32 41.4467 147.206 41.96 146.98 42.44C146.766 42.92 146.46 43.3467 146.06 43.72C145.673 44.0933 145.213 44.3867 144.68 44.6C144.16 44.8 143.586 44.9 142.96 44.9C142.333 44.9 141.753 44.8 141.22 44.6C140.7 44.3867 140.24 44.0933 139.84 43.72C139.453 43.3467 139.146 42.92 138.92 42.44C138.706 41.96 138.6 41.4467 138.6 40.9ZM140.22 40.7C140.22 41.2733 140.346 41.76 140.6 42.16C140.866 42.56 141.206 42.8667 141.62 43.08C142.046 43.2933 142.493 43.4 142.96 43.4C143.426 43.4 143.866 43.2933 144.28 43.08C144.706 42.8667 145.046 42.56 145.3 42.16C145.566 41.76 145.7 41.2733 145.7 40.7C145.7 40.1933 145.566 39.74 145.3 39.34C145.046 38.9267 144.706 38.6 144.28 38.36C143.866 38.12 143.426 38 142.96 38C142.493 38 142.046 38.12 141.62 38.36C141.206 38.6 140.866 38.9267 140.6 39.34C140.346 39.74 140.22 40.1933 140.22 40.7Z" fill="#5C0C70"/>
<path d="M240.4 35.3C240.4 34.66 240.26 34.1 239.98 33.62C239.713 33.1267 239.34 32.74 238.86 32.46C238.393 32.18 237.86 32.04 237.26 32.04C236.66 32.04 236.12 32.18 235.64 32.46C235.173 32.74 234.8 33.1267 234.52 33.62C234.253 34.1 234.12 34.66 234.12 35.3C234.12 35.94 234.253 36.5067 234.52 37C234.8 37.4933 235.173 37.8867 235.64 38.18C236.12 38.46 236.66 38.6 237.26 38.6C237.86 38.6 238.393 38.46 238.86 38.18C239.34 37.8867 239.713 37.4933 239.98 37C240.26 36.5067 240.4 35.94 240.4 35.3ZM236.42 44.7H234.28L238.66 38.92L238.78 39.02C238.513 39.3533 238.2 39.5733 237.84 39.68C237.493 39.7867 237.093 39.84 236.64 39.84C236.067 39.84 235.527 39.7267 235.02 39.5C234.527 39.2733 234.087 38.9533 233.7 38.54C233.327 38.1267 233.033 37.6467 232.82 37.1C232.607 36.54 232.5 35.94 232.5 35.3C232.5 34.34 232.707 33.5 233.12 32.78C233.547 32.06 234.12 31.5 234.84 31.1C235.56 30.7 236.367 30.5 237.26 30.5C238.167 30.5 238.973 30.7 239.68 31.1C240.4 31.5 240.967 32.06 241.38 32.78C241.807 33.5 242.02 34.34 242.02 35.3C242.02 35.8733 241.94 36.4067 241.78 36.9C241.62 37.3933 241.407 37.8267 241.14 38.2L236.42 44.7Z" fill="#5C0C70"/>
</svg>
