<svg width="24" height="24" viewBox="0 0 24 24" fill="none" xmlns="http://www.w3.org/2000/svg">
<path d="M15.71 8.29002C15.617 8.19629 15.5064 8.1219 15.3846 8.07113C15.2627 8.02036 15.132 7.99422 15 7.99422C14.868 7.99422 14.7373 8.02036 14.6154 8.07113C14.4936 8.1219 14.383 8.19629 14.29 8.29002L12 10.59L9.71 8.29002C9.5217 8.10171 9.2663 7.99593 9 7.99593C8.7337 7.99593 8.47831 8.10171 8.29 8.29002C8.1017 8.47832 7.99591 8.73372 7.99591 9.00002C7.99591 9.26632 8.1017 9.52171 8.29 9.71002L10.59 12L8.29 14.29C8.19627 14.383 8.12188 14.4936 8.07111 14.6154C8.02034 14.7373 7.9942 14.868 7.9942 15C7.9942 15.132 8.02034 15.2627 8.07111 15.3846C8.12188 15.5065 8.19627 15.6171 8.29 15.71C8.38297 15.8037 8.49357 15.8781 8.61543 15.9289C8.73729 15.9797 8.86799 16.0058 9 16.0058C9.13201 16.0058 9.26272 15.9797 9.38458 15.9289C9.50644 15.8781 9.61704 15.8037 9.71 15.71L12 13.41L14.29 15.71C14.383 15.8037 14.4936 15.8781 14.6154 15.9289C14.7373 15.9797 14.868 16.0058 15 16.0058C15.132 16.0058 15.2627 15.9797 15.3846 15.9289C15.5064 15.8781 15.617 15.8037 15.71 15.71C15.8037 15.6171 15.8781 15.5065 15.9289 15.3846C15.9797 15.2627 16.0058 15.132 16.0058 15C16.0058 14.868 15.9797 14.7373 15.9289 14.6154C15.8781 14.4936 15.8037 14.383 15.71 14.29L13.41 12L15.71 9.71002C15.8037 9.61705 15.8781 9.50645 15.9289 9.38459C15.9797 9.26274 16.0058 9.13203 16.0058 9.00002C16.0058 8.86801 15.9797 8.7373 15.9289 8.61544C15.8781 8.49358 15.8037 8.38298 15.71 8.29002ZM19.07 4.93002C18.1475 3.97492 17.0441 3.21309 15.824 2.689C14.604 2.16491 13.2918 1.88905 11.964 1.87751C10.6362 1.86598 9.31943 2.11899 8.09046 2.6218C6.8615 3.12461 5.74498 3.86714 4.80605 4.80607C3.86713 5.745 3.1246 6.86151 2.62179 8.09048C2.11898 9.31944 1.86596 10.6362 1.8775 11.964C1.88904 13.2918 2.1649 14.604 2.68899 15.8241C3.21308 17.0441 3.9749 18.1476 4.93 19.07C5.85247 20.0251 6.95592 20.7869 8.17596 21.311C9.396 21.8351 10.7082 22.111 12.036 22.1225C13.3638 22.1341 14.6806 21.881 15.9095 21.3782C17.1385 20.8754 18.255 20.1329 19.194 19.194C20.1329 18.255 20.8754 17.1385 21.3782 15.9096C21.881 14.6806 22.134 13.3638 22.1225 12.036C22.111 10.7082 21.8351 9.39601 21.311 8.17597C20.7869 6.95593 20.0251 5.85249 19.07 4.93002ZM17.66 17.66C16.352 18.9694 14.6305 19.7848 12.7888 19.9673C10.9471 20.1498 9.09901 19.6881 7.55953 18.6608C6.02004 17.6335 4.88436 16.1042 4.34598 14.3335C3.80759 12.5628 3.89981 10.6602 4.60692 8.9498C5.31403 7.23945 6.59228 5.82717 8.22389 4.95358C9.85551 4.07999 11.7395 3.79915 13.555 4.15889C15.3705 4.51863 17.005 5.49671 18.1802 6.92648C19.3554 8.35625 19.9985 10.1493 20 12C20.0036 13.0513 19.7986 14.0929 19.3969 15.0644C18.9953 16.0359 18.4049 16.9182 17.66 17.66Z" fill="#FF0000"/>
</svg>
